<svg width="300" height="278" fill="none" xmlns="http://www.w3.org/2000/svg"><g clip-path="url(#a)"><path d="M18 22A18 18 0 0 0 0 40v210a18 18 0 0 0 18 18h154a18 18 0 0 0 18-18V40a18 18 0 0 0-18-18H18Z" fill="#3F3D56"/><path d="M181 35H9v220h172V35Z" fill="#fff"/><path d="M158 74H32v9h126v-9ZM158 97H32v8h126v-8ZM158 119H32v8h126v-8ZM158 141H32v8h126v-8ZM158 163H32v8h126v-8ZM158 185H32v8h126v-8ZM158 207H32v9h126v-9Z" fill="#00BAFC"/><path d="M160 21 35 44l29 161 125-23-29-161Z" fill="#E6E6E6"/><path d="M149 53 56 70l1 6 93-17-1-6ZM152 69 59 86l1 6 93-17-1-6ZM155 85l-93 17 1 6 93-17-1-6ZM158 102l-93 17 1 6 93-17-1-6ZM161 118l-93 17 1 6 93-17-1-6ZM164 134l-93 17 1 6 93-17-1-6ZM167 150l-93 17 1 6 93-17-1-6Z" fill="#00BAFC"/><path d="m249 197-36 7 9 45 35-6-8-46Z" fill="#E6E6E6"/><path d="m246 206-27 5 1 2 26-5v-2ZM246 211l-26 5 1 1 26-4-1-2ZM247 216l-26 4v2l27-5-1-1ZM248 220l-26 5v2l26-5v-2ZM249 225l-26 5v1l26-5v-1ZM250 229l-26 5v2l26-5v-2ZM251 234l-27 5 1 1 26-4v-2Z" fill="#fff"/><path d="M127 12h-15V8a8 8 0 0 0-9-8H87a8 8 0 0 0-9 8v4H63a8 8 0 0 0-8 8v23h80V20a8 8 0 0 0-8-8ZM90 239l8-4c2-1 5-1 8 1 1 2 2 4 1 6a4 4 0 0 1-3 2 3 3 0 0 1-3-1v-3l2-2h4l4-1 20-3 23-3a1 1 0 0 0 0-1 1 1 0 0 0-1 0l-44 6-5 1-3 1c-2 2-2 5 0 7 2 1 5 1 6-1a6 6 0 0 0 1-7c-2-3-6-4-9-4l-10 5c-1 0 0 2 1 1Z" fill="#3F3D56"/><path d="m245 188 1 4s-3 11 3 11 1-11 1-11l1-3-6-1ZM287 172l-2 5s-8 7-3 10 7-8 7-8l2-3-4-4Z" fill="#A0616A"/><path d="m253 192 6 44 3 31s3 7 12 1l-1-18-1-16-2-19c-1-2 1-12 1-12l3-15-21 4Z" fill="#2F2E41"/><path d="m263 266-3 4s-6-1-7 2c-2 4 10 5 10 5h13l-2-9-11-2ZM270 190l7 46 3 31s3 7 12 1l-1-18-1-16-2-19v-12l-1-17-17 4Z" fill="#2F2E41"/><path d="m281 266-4 4s-5-1-7 2c-1 4 11 5 11 5h12c0-1 0-8-2-9l-10-2Z" fill="#2F2E41"/><path d="M256 117a10 10 0 1 0 0-20 10 10 0 0 0 0 20Z" fill="#A0616A"/><path d="m264 111 4 7-11 5-1-8 8-4Z" fill="#A0616A"/><path d="M269 118s-10-1-14 5l-9 7a5 5 0 0 0-2 5l8 59h12l19-4 5-1-3-25s-3-9 1-16l-2-22-13-6-2-2Z" fill="#575A89"/><path d="m247 132-1-2v2l-2 42-1 15 9 1 3-29-1-18-7-11ZM278 125l6 1 7 8c2 5 11 15 9 22l-8 21-8-4s7-16 6-17l-6-10-6-21Z" fill="#575A89"/><path d="M250 102s-8-1-3-6c0 0 4-2 6-1l3-1s9-2 11 7c1 10-1 15-1 15l-7-1s2-8-3-7c0 0-4 2-5 0l-1-6Z" fill="#2F2E41"/><path opacity=".2" d="m253 189 5-27-3-17 1 18-3 26Z" fill="#000"/></g><defs><clipPath id="a"><path fill="#fff" d="M0 0h300v278H0z"/></clipPath></defs></svg>