<svg width="180" height="130" fill="none" xmlns="http://www.w3.org/2000/svg"><g clip-path="url(#a)"><path opacity=".1" d="M58 5c4-4 12-5 19-5 22 1 41 12 58 23 6 5 12 9 16 15 8 12 6 29-5 39l-14 8c-8 4-17 7-27 8a136 136 0 0 1-74-19c-7-4-13-9-16-16s-1-16 6-20c3-2 6-2 10-3l14-4c5-3 11-7 10-12S53 9 58 5ZM141 118l18-1-18-1-18 1 18 1ZM94 110l18-1-18-1-18 1 18 1ZM28 129l18-1-18-1-18 1 18 1ZM62 130h8l-8-1-7 1h7ZM174 118l5-1h-11l6 1ZM120 110l5-1h-10l5 1Z" fill="#00BAFC"/><path d="M174 108v3l-2 4s2-3 4-3l-2-4Z" fill="#00BAFC"/><path opacity=".1" d="m174 108 1 1c1 1 2 3 0 3l-3 3s2-3 4-3l-2-4Z" fill="#000"/><path d="M176 110v-1 1ZM176 110h1-1Z" fill="#FFD037"/><path d="m170 108 1 3c1 1 2 3 1 4 0 0-1-3-3-3l1-4Z" fill="#00BAFC"/><path opacity=".1" d="M170 108v1l-1 3c2 0 3 2 3 3 0 0-1-3-3-3l1-4Z" fill="#000"/><path d="M169 110v-1 1ZM168 110h1-1Z" fill="#FFD037"/><path d="M169 114h7s3 3 0 3h-6l-1-3Z" fill="#A8A8A8"/><path opacity=".2" d="m176 117-6-1-1-2 1 3h7-1Z" fill="#000"/><path d="M121 102v2c-1 1-2 2-1 3l2-2c1 0 1-2-1-3Z" fill="#00BAFC"/><path opacity=".1" d="M121 102c2 1 2 3 1 3l-3 2h1l2-2c1 0 1-2-1-3Z" fill="#000"/><path d="M122 103ZM123 103l-1 1 1-1Z" fill="#FFD037"/><path d="M118 102v2l2 3-3-2c-1 0-1-2 1-3Z" fill="#00BAFC"/><path opacity=".1" d="M118 102c-2 1-2 3-1 3l3 2-3-2c-1 0-1-2 1-3Z" fill="#000"/><path d="M117 103ZM116 103l1 1-1-1Z" fill="#FFD037"/><path d="M117 107h2l3-1c0 1 3 4 1 4l-6-1v-2Z" fill="#A8A8A8"/><path opacity=".2" d="M123 109h-6v-2 2l6 1 1-1h-1Z" fill="#000"/><g opacity=".8"><path opacity=".8" d="M25 103a12 12 0 1 1 0 25 12 12 0 0 1 0-25Z" fill="#E74D89"/><path opacity=".8" d="M25 128a13 13 0 1 1 0-26 13 13 0 0 1 0 26Zm11-11-7-1 2 9a11 11 0 0 0 5-8Zm-7 9a47 47 0 0 0-2-9c-6 2-9 7-9 7a11 11 0 0 0 11 2Zm-12-3c0-1 3-6 9-8l-1-2c-5 2-11 2-11 2 0 3 1 6 3 8Zm-3-10 10-2-4-6a11 11 0 0 0-6 8Zm8-9 5 7 5-4a11 11 0 0 0-10-3Zm12 4s-2 3-7 4a49 49 0 0 1 1 3h8l-2-7Z" fill="#B2215A"/></g><path d="m56 77-1-3-1-6-1-4s0-5-3-7l-1-2 1-1a2 2 0 0 0 1-1v-1a1 1 0 0 0-1-1 1 1 0 0 0 1 0v-1l-1-1-2-5-2-3-3-1h-3l-3 1-1 2-2 4v3a10 10 0 0 1 0 2v1l-2 1-3 3-1 1-1 1v9l-2 9v5l1 1v1l1-1v2l-2 2 1 2-1 2-1 4s-3 6 1 7 6-1 6-1 2 0 2-2l1-1v-3l4-4 1 2v17l-1 7v7a8 8 0 0 1-1 2v2h5v-3l-1-1v-1h1v-1l1-3 1-3 1-4v-10l1-1v-1l2-6 1-2 4-1-1-3v-1l1 1v-2l3-4v-5Z" fill="url(#b)"/><path d="M45 50h-4v5h4v-5Z" fill="#925978"/><path opacity=".1" d="M45 50h-4v5h4v-5Z" fill="#000"/><path d="m34 95 1 3-3 2v-4l2-1Z" fill="#FF6484"/><path d="M30 101h2l1-2v-3l-3 5Z" fill="#575988"/><path opacity=".1" d="M30 101h2l1-2v-3l-3 5Z" fill="#000"/><path d="m32 82-5 5-1 4-2 4s-3 6 1 7 6-1 6-1l3-6 4-4 1 2v17l-1 7v5l4 1v-1l1-3v-3l1-4s2-7 1-10l1-1v-1l2-6 1-5v-7H32Z" fill="#575988"/><path d="m47 57-3 5-1 2h-8v-1a35 35 0 0 1-2-6l1-2h2l2-4v-3h1c2-1 4-1 4 2v3l2 1 2 3Z" fill="#FFC5CB"/><path opacity=".1" d="M39 60v3M41 53a4 4 0 1 0 0-9 4 4 0 0 0 0 9Z" fill="#000"/><path d="M46 48a4 4 0 1 1-9 0 4 4 0 0 1 9 0Z" fill="#FFC5CB"/><path opacity=".1" d="M34 59s2 4 5 4c0 0 3 0 5-3 2-2 2 14 2 14v11s-6 4-8 3l-4-2-3-2 1-14v-6l2-5Z" fill="#000"/><path d="M34 59s2 4 5 3c0 0 3 0 5-2s2 14 2 14v11l-8 3-4-2-3-2 1-15v-5l2-5Z" fill="#E8F4FF"/><path opacity=".1" d="m34 82 3 4-3-4ZM33 72l2 1-2-1ZM36 55a260 260 0 0 1-2 11v13l-1 3-2 3-3 3-1 1s-3-2-1-2a5 5 0 0 0 2-2v-2l1-1 2-11-3-7h-1l1-5v-1l1-1 3-2 3-1 1-1v2Z" fill="#000"/><path d="M36 55a261 261 0 0 1-2 11v13l-1 3-2 3h-1l-2 3-1 1-2-2 2-2h1v-3h1l2-11-4-7 1-5v-1l1-1 3-2 2-1 2-1v2Z" fill="#FF6484"/><path opacity=".1" d="m52 65-3 4a199 199 0 0 0 3 22l-6 1v-3l-1-3-3-9v-7a32 32 0 0 1 1-8v-2l1-5v-1h1l4 3c3 3 3 7 3 7v1Z" fill="#000"/><path d="m52 65-3 4a199 199 0 0 0 3 19v3l-5 1c-2 0-1-2-1-3 1-1-1-3-1-3l-2-9-1-3v-4a32 32 0 0 1 1-8v-2l1-5 1-1 4 3c3 3 4 7 4 7l-1 1Z" fill="#FF6484"/><path opacity=".1" d="m45 67 2 19-2-19Z" fill="#000"/><path d="M31 91c-1 1-2-1-3-3a36 36 0 0 1-1-4v-1l1-1h2v3c1 2 3 5 1 6ZM52 86v2s-4 5-5 3c-1-1 1-4 2-5l1-1 1 1h1Z" fill="#FFC5CB"/><path d="M42 127h-5v-1l1-2 1-2s1-2 2 1v2l1 2Z" fill="#FF6484"/><path d="M42 127h-5v-1h2l3 1Z" fill="#E8F4FF"/><path opacity=".1" d="M38 51v4l-1 2v3l-1 1-1-1v-1l-2-1v-2l1-1v-1l2-1v2l2-4ZM40 45l-1 1v2l-1 2v1a4 4 0 1 1 6 1v-6a3 3 0 0 0-4-1ZM49 59l-1 1h-2v1l-2 1h-1l-1-2 1-3v-4l2 1 4 3v2Z" fill="#000"/><path d="m43 40 2 2h1l2 2c0 2 0 4 2 6v1l1 2-2 1v4l-1 1h-1l-1 1v1l-2 1-2-2 1-3v-3l1-4v-4a3 3 0 0 0-4-1l-1 1v2l-1 2v4l-1 3v3l-1 1-1-2-2-1a2 2 0 0 1 0-1v-2l2-3-1-5 2-4 1-2h3l1-1h2Z" fill="#925978"/><path opacity=".1" d="M31 76v9l-1-1-2-1-1 1v-1l1-1h1l2-11-4-7 1-2c2-1 3 1 3 1v13Z" fill="#000"/><path d="M31 75v9c-3-3-4 0-4 0l-1-1v-1l-1-4 2-10v-4l1-2c2-2 3 0 3 0v13Z" fill="#FF6484"/><path opacity=".1" d="M31 81v3c-3-3-4 0-4 0l-1-1v-1c1-1 3-2 5-1Z" fill="#000"/><path d="M31 81v3c-3-3-4 0-4 0l-1-1v-1c1 0 3-2 5-1Z" fill="#FF6484"/><path opacity=".1" d="M31 81v3c-3-3-4 0-4 0l-1-1v-1c1 0 3-2 5-1Z" fill="#fff"/><path opacity=".1" d="m28 70 1 5-1-5ZM26 77l1 3-1-3ZM51 86h1v1h-1l-2-1h-1V67s1-6 3-4l1 1v1l-3 4a199 199 0 0 0 2 17Z" fill="#000"/><path d="m55 82-2 4-1 2s-1-2-4-2l1-2-1-5 1-3-1-3v-6s1-6 4-4l1 1v4l1 7 1 3v4Z" fill="#FF6484"/><path opacity=".1" d="m53 86-1 1s-1-2-4-1l1-2 4 2Z" fill="#000"/><path d="m53 86-1 2s-1-2-4-2l1-2 4 2Z" fill="#FF6484"/><path opacity=".1" d="m53 86-1 2s-1-2-4-2l1-2 4 2Z" fill="#fff"/><path opacity=".1" d="M50 74s3 0 3 2l-3-2ZM49 78s5 0 5 2-5-2-5-2ZM50 81v1-1ZM40 102h2-2ZM40 103h3-3Z" fill="#000"/><g opacity=".1" fill="#000"><path opacity=".1" d="m35 52-1-4 1 4ZM38 54l-1 2 1-2v-2 2ZM50 51ZM37 60l-1 1-1-3h-2v-1a2 2 0 0 0 0 1l2 1 1 2 1-1v-2 2ZM51 53l-2 1v1-1l2-1ZM49 58l-1 1h-2v1l-2 2-2-2 2 2 2-1v-1l1-1h1l1-1v-1 1ZM44 46v2-3a3 3 0 0 0-4-1l-1 1v2l-1 2v1l1-2v-2l1-1a3 3 0 0 1 4 1Z"/></g><g opacity=".8"><path opacity=".8" d="M94 109a13 13 0 1 0 0-26 13 13 0 0 0 0 26Z" fill="#1769FF"/><path opacity=".8" d="M91 90h1l1 1 1 1v3l-1 1 1 1a4 4 0 0 1 1 3l-1 1-2 1h-7V90h6Zm-1 5h1l1-2-1-1h-3v3h2Zm0 5h2v-3h-4v3h2Zm8 0h3l1-1h2l-2 2-2 1h-2a4 4 0 0 1-2-3 5 5 0 0 1 0-3 4 4 0 0 1 2-3h4l1 1 1 2v2h-6v2Zm3-5h-2a2 2 0 0 0-1 1v1h4l-1-2Zm-4-4h5v1h-5v-1Z" fill="#fff"/></g><g opacity=".8"><path opacity=".8" d="M154 104Z" fill="#B3BBC6"/><path opacity=".8" d="M154 104a13 13 0 0 1-11 13l-11-8 1-9h6l3 3 2-4 3 4 2 1v-5l5 5Z" fill="#666C76"/><path opacity=".8" d="M140 104c0-3-2-5-5-5h-3v10h3c3 0 5-2 5-5Zm-2 0c0 2-1 3-3 3h-1v-6h1c2 0 3 1 3 3Zm11 5V99h-2v6l-3-6h-2v10h2v-6l3 6h2Z" fill="#fff"/></g><path d="m144 90-1-3-1-2 1-1-1-1V71l-1-3-1-2v-1l-1-3-1-6v-6h1V40l1-2 3-8v-8c-1-1-1-4-3-5l-3-2-3-2a6 6 0 0 1 0-2v-1 1a1 1 0 0 0 1 0v-1l1-1V5a1 1 0 0 0 0-1h-1l-1-1a2 2 0 0 0-1-1h-3l-2 1-1 1v1h-1v3a4 4 0 0 0 2 3l-1 2h-2l-3 1-3 3s-3 1-3 4v3l-1 6v5l1 5 2 5h-1v1l-1 2v1h-1v1l-3 7-2 3-1 4v1l-1 1-2 7-1 2v3l-1 2h-1l-2-1h-3l-3-1-1 1 3 3 4 2 3 2h1l1-1 1-1v-1a41 41 0 0 1 0-2h1l1-1 1-4 1-2 2-4 1-2v-2l1-2 2-2 4-5 4-5c1-1 1-2 2-1l2 3 2 4 2 6 1 2 1 3 1 1v4l1 2v2l1 2a13 13 0 0 1 0 5h1v2a85 85 0 0 0 0 4h3l2 1v-2Z" fill="url(#c)"/><path d="M142 87h-4v-3h3l1 1v2ZM108 81l-1 1v2h-3l-1-3 1-1a7 7 0 0 0 1-1l3 2Z" fill="#FFAAB0"/><path opacity=".1" d="m108 81-1 1-3-2 1-1 3 2ZM142 85h-4v-1h3l1 1Z" fill="#000"/><path d="m118 46-2 2v1l-1 1-3 7-2 4-1 3v1l-1 1-2 7-1 2v4l-1 1s3 2 4 1l1-1 2-4v-2l2-4 1-2v-2l1-2 2-1 4-5 4-6s1-2 2-1l2 3 2 4 2 6v2l2 3v2l1 1v4l1 2v2l1 3v2l4-1v-4l-1-9v-3l-1-2-1-1v-3l-1-6v-6l-20-4Z" fill="#DCE6F2"/><path opacity=".1" d="M139 50h-7l-3-1h-7l-3-1v-1h-2v-1l1-1 20 3a81 81 0 0 0 1 2Z" fill="#000"/><path d="M139 50h-7l-3-1-7-1h-3v-1h-2v-2h1l20 3a81 81 0 0 0 1 2Z" fill="#F1FAFF"/><path opacity=".1" d="M107 83v1h-3l-1-3 1-1v3h3Z" fill="#000"/><path d="M107 83v1l-1 2-1 1-4-3-4-1-3-4h4l4 1h2v3h3Z" fill="#575988"/><path d="m106 86-1 1-4-3-4-1-3-4h2l1 2a254 254 0 0 0 9 5Z" fill="#F1FAFF"/><path opacity=".1" d="M142 87h-4l2-1 2 1Z" fill="#000"/><path d="M144 91v1h-3l-2-1a1 1 0 0 1-1 0v-4l2-1 2 1 2 3v1Z" fill="#575988"/><path d="M144 91v1h-3l-2-1a1 1 0 0 1-1 0v-1h3l3 1Z" fill="#F1FAFF"/><path opacity=".1" d="M106 74v1-1ZM137 78l1 1-1-1Z" fill="#000"/><path d="M137 17h-5l-6-2 1-1v-1a22 22 0 0 0 1-3s6-3 5 0v2l1 1 3 4Z" fill="#FFAAB0"/><path opacity=".1" d="M133 10v2a4 4 0 0 1-6 0l1-2s6-3 5 0Z" fill="#000"/><path d="M135 8a4 4 0 1 1-9 0 4 4 0 1 1 9 0Z" fill="#FFAAB0"/><path opacity=".1" d="m132 17-6-2 1-1v-1l3 3h1l1 1Z" fill="#000"/><path d="m132 17-2 1h-3l-2-2 1-3h1s0 3 3 3l2 1Z" fill="#F1FAFF"/><path opacity=".1" d="M137 17h-5l-2 1h-3l-2-2 1-3 1 1c0 1 1 2 3 2 3 0 4-2 4-3l3 4ZM138 49h-5l-3-1a11 11 0 0 1-2 0l-5-1h-2l-4-1 1-1 20 3v1Z" fill="#000"/><path d="m138 41 1 5-1 3-5-1h-3a11 11 0 0 1-2 0l-5-1h-2l-4-2 2-1 2-7v-4l-1-7s-4-2-4-5c0-2 3-4 3-4l3-2 3-2h1s1 3 4 3 4-3 4-3l3 2 3 3c2 1 2 3 2 4v1l-6 5 2 10v3Z" fill="#575988"/><path d="M122 46s2 4 4 3l2-1c1-2 0-4-2-4h-2l-2 2Z" fill="#FFAAB0"/><path opacity=".1" d="M122 46s2 4 4 3l2-1c1-2 0-4-2-4h-2l-2 2ZM119 19s2 1 2 3l-2-3ZM122 20v10-10ZM135 8l-1 3V9a3 3 0 0 0-1-1 1 1 0 0 0-2-2v1h-2l-2 1h-1a4 4 0 1 1 9 0Z" fill="#000"/><path d="M126 5h1V4l1-1 1-1 1 1 2-1a2 2 0 0 1 2 1l1 2a1 1 0 0 1 1 1v2l-1 1v2a1 1 0 0 1-1 0V9a3 3 0 0 0-1-1V7a1 1 0 0 0-2-1v1h-2l-2 1a1 1 0 0 0-1 0V5Z" fill="#794F6A"/><path opacity=".1" d="M110 66s-2 0-1 1l1-1ZM136 68s1-2 2-1-2 1-2 1ZM138 68h2-2ZM117 49l3 3-3-3ZM117 20l-1 1v14l1 5 2 6h2l2 1 3-3-2-2s1-1-1-2l-1-1v-4l-1-10s-1-6-4-5Z" fill="#000"/><path d="m117 20-1 1v3l-1 6v5l1 5 3 6h2l1 1 4-3-2-2-1-2-1-1-1-4V25s-2-6-4-5Z" fill="#575988"/><path opacity=".1" d="m122 41-2 3 2-3Z" fill="#000"/><path d="M127 45s-5 0-5 2 4 4 5 3l2-1-2-4Z" fill="#FFAAB0"/><path opacity=".1" d="m141 21 1 2v8l-3 7-2 4-5 6h-2l-2 1-3-5h3v-1l1-1 1-1 1-1 1-2 1-1v-1l1-3v-5l1-5s2-6 6-2Z" fill="#000"/><path opacity=".1" d="M138 38v4l-5 6h-3l-1 1-1-1-2-4h2l1-1 1-1v-1l2-1v-2l2-1v-4l1-5 1-5s1-6 6-2v2l-7 5 3 10Z" fill="#000"/><path d="m141 21 1 2v8l-2 7-2 4-5 6h-2l-2 1s-4-4-3-5h2v-1l2-1v-1l1-1 1-2 1-1v-1l1-3v-5l1-5s2-6 6-2Z" fill="#575988"/><path opacity=".1" d="M129 44h1-1ZM138 22l-2 3c1 1 2-3 2-3ZM135 34l1 2-1-2ZM135 32l4 1-4-1Z" fill="#000"/><g opacity=".1" fill="#000"><path opacity=".1" d="M136 7V6v1ZM126 7V6v1ZM136 8l-1 1v2a1 1 0 0 1-1 0 1 1 0 0 0 1 0V9l1-1ZM134 10V9a3 3 0 0 0-1-1V7a1 1 0 0 0-2-1 1 1 0 0 1-1 0h-1l-2 2a1 1 0 0 0-1 0 1 1 0 0 1 1 0l2-1h1a1 1 0 0 0 1 0V6a1 1 0 0 1 2 1v1l1 1v1Z"/></g><path d="M80 24v18c5 0 9-4 9-9a9 9 0 0 0-9-9Z" fill="#61BEEC"/><path d="M68 48V34l2-7a8 8 0 0 1 7-3v15s0 8-9 9Z" fill="#4064AC"/><path opacity=".1" d="M30 22a5 5 0 1 0 0-10 5 5 0 0 0 0 10ZM19 8a3 3 0 1 0 0-6 3 3 0 0 0 0 6ZM3 14a2 2 0 1 0 0-4 2 2 0 0 0 0 4Z" fill="#00BAFC"/><path d="M68 111v1h-1l-1-2c-1 1 0 1 1 2l-1 2-1 2a2 2 0 0 0-2 0l-2-4v-2 2a1 1 0 0 0-1 0l-2-1 1 2c0 2 2 3 3 4l-2 5h4l2-4c2 0 3-3 3-5l1-1c1-1-1-2-2-1Z" fill="#00BAFC"/><path opacity=".1" d="M68 111v1h-1l-1-2c-1 1 0 1 1 2l-1 2-1 2a2 2 0 0 0-2 0l-2-4v-2 2a1 1 0 0 0-1 0l-2-1 1 2c0 2 2 3 3 4l-2 5h4l2-4c2 0 3-3 3-5l1-1c1-1-1-2-2-1Z" fill="#000"/><path d="m61 112-1 2v-1l-2-2c1-1 2 0 2 1h1ZM62 111l-1 1v-1l1-1v1ZM67 112l-1-2 1 2ZM70 112l-1 1h-1v-1l1-1c0-1 2 0 1 1Z" fill="#00BAFC"/><path opacity=".1" d="M60 112h1l-1 2v-2ZM62 111l-1 1v-1h1Z" fill="#000"/><path d="M64 117h-2c-1-1-4-3-2-5s3 2 4 4v1Z" fill="#00BAFC"/><path opacity=".1" d="M67 112ZM69 113h-1v-1l1 1Z" fill="#000"/><path d="M66 118c-4 1-1-1-1-1v-1l1-2 2-2c1 0 2 5-2 6Z" fill="#00BAFC"/><path d="M66 127h-7v2h7v-2Z" fill="#D4DFEC"/><path d="M67 121h-9v7h9v-7Z" fill="#D4DFEC"/><path opacity=".1" d="M66 127h-7v2h7v-2Z" fill="#000"/><path opacity=".1" d="M67 121h-9v7h9v-7Z" fill="#000"/><path d="M66 127h-7v2h7v-2Z" fill="#D4DFEC"/><path opacity=".1" d="M64 116v1h-2l2-1ZM66 118c-4 1-1-1-1-1v-1l1 2Z" fill="#000"/><path d="M60 122s2-8 5-6c3 3-1 6-1 6h-4Z" fill="#00BAFC"/><path opacity=".1" d="M61 114v-1 1ZM61 115v-1 1ZM68 114v-1 1ZM62 119ZM67 116v-1 1ZM65 118ZM62 114ZM67 115v-1 1ZM66 116ZM64 119ZM63 118ZM62 116v-1 1ZM66 127h-7v1h7v-1Z" fill="#000"/><path d="M68 121H58v7h10v-7Z" fill="#D4DFEC"/><path opacity=".1" d="M64 120ZM63 121v-1 1Z" fill="#000"/></g><defs><linearGradient id="b" x1="39.3" y1="127.9" x2="39.3" y2="39.8" gradientUnits="userSpaceOnUse"><stop stop-color="gray" stop-opacity=".3"/><stop offset=".5" stop-color="gray" stop-opacity=".1"/><stop offset="1" stop-color="gray" stop-opacity=".1"/></linearGradient><linearGradient id="c" x1="39224.3" y1="54940.5" x2="39224.3" y2="6127.7" gradientUnits="userSpaceOnUse"><stop stop-color="gray" stop-opacity=".3"/><stop offset=".5" stop-color="gray" stop-opacity=".1"/><stop offset="1" stop-color="gray" stop-opacity=".1"/></linearGradient><clipPath id="a"><path fill="#fff" transform="translate(1)" d="M0 0h179v130H0z"/></clipPath></defs></svg>