<svg width="59" height="20" fill="none" xmlns="http://www.w3.org/2000/svg"><g clip-path="url(#a)"><path d="M0 20V0h7l2 1 2 1a6 6 0 0 1 2 4 6 6 0 0 1-2 4l-2 2H3v8H0ZM7 9h1a3 3 0 0 0 2-2 3 3 0 0 0-1-3 3 3 0 0 0-2-1H3v6h4ZM15 6v14h3V6h-3Z" fill="#191919"/><path d="M19 2a2 2 0 0 1-1 1 2 2 0 0 1-1 1V0a2 2 0 0 1 1 1 2 2 0 0 1 1 1Z" fill="#35AF39"/><path d="M17 0v4a2 2 0 0 1-2-1 2 2 0 0 1 0-1 2 2 0 0 1 0-1 2 2 0 0 1 2-1Z" fill="#00BAFC"/><path d="m25 13-5-7h4l3 5 3-5h3l-4 7 4 7h-3l-3-5-3 5h-4l5-7ZM47 16l-3 3-3 1-3-1a6 6 0 0 1-4-3v-3a8 8 0 0 1 2-5 7 7 0 0 1 5-2h2a6 6 0 0 1 4 4v4H37v1l1 1 1 1h4l1-2 3 1Zm-3-5v-1l-1-1a4 4 0 0 0-3-1l-2 1-1 2h7ZM49 6h3v2l1-1h1l1-1h3l-1 3h-3a3 3 0 0 0-1 2l-1 2v7h-3V6Z" fill="#191919"/></g><defs><clipPath id="a"><path fill="#fff" d="M0 0h58v20H0z"/></clipPath></defs></svg>