<svg width="300" height="260" fill="none" xmlns="http://www.w3.org/2000/svg"><g clip-path="url(#a)"><path d="M164 73a28 28 0 1 0 0-56 28 28 0 0 0 0 56Z" fill="#A0616A"/><path d="M143 59s5 39-3 44c-8 4 48 4 48 4s-12-34-7-44l-38-4Z" fill="#A0616A"/><path d="m229 108-5 21-10 44v3l-3 28-3 19-1 12-16 8-2-6c-6 2-18 5-28 5 4 5 5 8 3 11-7 9-35-9-45-16v5l-8-6 1-13 1-23 2-29-2-4a429 429 0 0 1-10-61h-1l43-19c3 7 17 9 17 9 11-1 20-7 20-7l47 19Z" fill="#D0CDE1"/><path d="m194 235-5 2c-6 2-18 5-28 5-9 1-16 0-17-6-1-2 0-4 2-6 5-5 19-7 30-7l8-1h7v1l3 12Z" fill="#A0616A"/><path d="m141 19-5-2s10-12 25-11l-4-5s11-4 20 7c5 6 11 13 14 20h6l-3 5 8 5-8-1v9c0 3-1 5-4 7l-6-15v5s-5-5-5-8l-3 4-1-6-18 6 3-5-11 1 4-5s-12 7-12 12c-1 6-4 11-4 11s-10-26 4-34Z" fill="#2F2E41"/><path d="m259 204-19 13a456 456 0 0 1-33 18l-16 8-2-6c-1-5-3-12-5-14v-1l-1-1 28-17 12-8-9-20-11-26 7-21 6-21h13a815 815 0 0 0 11 27c11 26 25 63 19 69Z" fill="#D0CDE1"/><path d="M164 253c-7 9-35-9-45-16l-4-2 9-12 3-4a200 200 0 0 0 34 23c4 5 5 8 3 11Z" fill="#A0616A"/><path d="m134 222-3 1c-9 1-11 9-12 14v5l-8-6-3-2c-7-2-13-6-18-11l-12-15-9-15a12 12 0 0 1 0-10l9-21 14-31v-2c3-16 10-23 10-23h6l4 23 5 28-4 10-7 25 7 8 21 22Z" fill="#D0CDE1"/><path d="m140 157 5 5 5-1-1-4 3 4c21-5 46-15 46-15s-27 2-48-2c-9-2-18 2-21 10-3 5-2 10 5 10l8-1-2-6Z" fill="#00BAFC"/><path d="M249 249v2a5 5 0 0 1-5 5H77a5 5 0 0 1-6-5v-2a5 5 0 0 1 6-5h9v-2h6v2h3v-2h5v2h3v-2h6v2h3v-2h5v2h4v-2h5v2h3v-2h6v2h3v-2h40v2h3v-2h5v2h4v-2h5v2h3v-2h6v2h3v-2h5v2h3v-2h6v2h3v-2h6v2h14a5 5 0 0 1 5 5Z" fill="#3F3D56"/><path d="M298 253H23v1h275v-1ZM236 153h-63v-2h-28v2H82a4 4 0 0 0-4 4v85a4 4 0 0 0 4 5h154a4 4 0 0 0 4-5v-85a4 4 0 0 0-4-4Z" fill="#3F3D56"/><path d="M159 192a9 9 0 1 0 0-19 9 9 0 0 0 0 19Z" stroke="#D0CDE1" stroke-width="2" stroke-miterlimit="10"/><path d="M156 195a9 9 0 1 0 0-18 9 9 0 0 0 0 18ZM41 249H30v10h11v-10Z" fill="#D0CDE1"/><path d="M34 241v12h13v-12H34Zm13 12H35v-12h12v12Z" fill="#3F3D56"/><path d="M284 249h-10v10h10v-10Z" fill="#D0CDE1"/><path d="M278 241v12h13v-12h-13Zm12 12h-12v-12h12v12Z" fill="#3F3D56"/><path d="M36 87a30 30 0 1 0 0-60 30 30 0 0 0 0 60Z" fill="#00BAFC"/><path d="M46 22a32 32 0 0 0-25 7 32 32 0 0 0 23 56 31 31 0 0 0 23-12 32 32 0 0 0-21-51Zm6 60a30 30 0 0 1-32-7 31 31 0 1 1 32 7Z" fill="#3F3D56"/><path d="M42 24h-1v7h1v-7ZM22 32l-1 1 5 5v-1l-4-5ZM13 53v1h6v-1h-6ZM21 73l1 1 4-5-5 4ZM57 37l1 1 5-5-1-1-5 5ZM64 53v1h7v-1h-7ZM58 69h-1l5 5 1-1-5-4ZM42 76h-1v6h1v-6ZM43 51a2 2 0 1 0-3 4 2 2 0 0 0 3-4Zm-1 4a1 1 0 0 1-1-3 1 1 0 1 1 1 3ZM46 14h-8v8h8v-8Z" fill="#3F3D56"/><path d="M42 15c6 0 11-1 11-4 0-2-5-3-11-3s-11 1-11 3c0 3 5 4 11 4ZM43 36h-3v15h3V36ZM85 83H0v1h85v-1Z" fill="#3F3D56"/><path d="M57 226c0 12-7 16-16 17a31 31 0 0 1-2 0c-8-1-14-5-14-16-1-12 14-27 15-28 0 0 16 15 17 27Z" fill="#D0CDE1"/><path d="m40 241 6-9-6 10v1h-1l1-12v-2l-7-9 7 8v1-9l-5-10 5 8v-19 15l5-6-5 7v8l5-8-5 10v4l7-11-7 13v10Z" fill="#3F3D56"/><path d="M300 226c0 12-7 16-15 17a31 31 0 0 1-2 0c-8-1-15-5-15-16 0-12 14-27 15-28 0 0 17 15 17 27Z" fill="#D0CDE1"/><path d="m284 241 5-9-5 10v1h-1v-14l-6-9 6 8v1-9l-5-10 5 8v-19l1 15 4-6-4 7v8l4-8-4 10v4l6-11-6 13v10Z" fill="#3F3D56"/></g><defs><clipPath id="a"><path fill="#fff" transform="translate(0 1)" d="M0 0h300v259H0z"/></clipPath></defs></svg>