<svg width="178" height="130" fill="none" xmlns="http://www.w3.org/2000/svg"><g clip-path="url(#a)"><path opacity=".1" d="M104 18c-10 0-20-4-30-7-9-4-19-8-29-10-6-1-14-2-19 2-5 3-7 9-8 15 0 4-1 8 1 12l5 7c5 9 2 20-4 28l-8 13c-2 4-3 9-2 13 2 5 7 8 11 10 10 5 21 6 32 7a753 753 0 0 0 101-2c5-1 10-2 14-5 5-4 6-10 3-15-6-8-20-10-23-18-2-5 0-10 3-15 6-9 16-17 17-28 0-7-5-15-13-18-8-4-19-3-25 3s-17 8-26 8Z" fill="#00BAFC"/><g opacity=".9"><path opacity=".9" d="M116 40h-1v12h1V40ZM68 31h-1v3l1 1v-4ZM68 38h-1v6l1 1v-7ZM68 47h-1v7h1v-7Z" fill="#3A3768"/><path opacity=".9" d="M109 18H74c-3 0-6 3-6 6v85c0 3 3 6 6 6h35c4 0 7-3 7-6V24c0-3-3-6-7-6Z" fill="#3A3768"/><path opacity=".9" d="M93 21h-5l-1 1h7l-1-1ZM96 22a1 1 0 1 0 0-1 1 1 0 0 0 0 1Z" fill="#E6E8EC"/></g><path opacity=".1" d="M39 121c18 0 32-2 32-4 0-1-14-3-32-3s-32 2-32 3c0 2 14 4 32 4ZM111 130c8 0 15-1 15-2l-15-1-15 1c0 1 6 2 15 2ZM162 122l15-1c0-1-6-2-15-2-8 0-15 1-15 2l15 1Z" fill="#00BAFC"/><path d="M109 21h-6a3 3 0 0 1-3 3H83a3 3 0 0 1-3-3h-5a4 4 0 0 0-4 3v85a4 4 0 0 0 4 4h34a4 4 0 0 0 4-4V24a4 4 0 0 0-4-3ZM132 14s-13-1-12 9l1 2h3l2-1s4-2 5-8l1-2-2 1v3-3l-1 1v5l-1-5-1 1v6l-1-6-1 1v5l-1-4-1 1v4-3l-2 3 1-3-2 1s1-2 3-2l1-1h-3l3-1 2-1h-4 4l2-1h-4 4l1-1h-2 3l2-1ZM118 10s-6-1-5 4v1l1-1h1l3-3v-1h-1v2-2 3l-1-2v3-3l-1 1v2-2l-1 1v1-1l-1 1 1-1h-1l1-1h1-2 2v-1h-1 2v-1h-1 2-1 2ZM7 111c4 0 7-1 7-2l-7-1-6 1c0 1 2 2 6 2Z" fill="#00BAFC"/><path d="M10 108v-2H9l-1 1a2 2 0 0 0 0-2H7l-1 3v-3H5l-1 1v1l1 1 1 1h2l2-1ZM135 94s1 2-1 5c-2 2-4 5-3 6 0 0 3-5 5-5 3 0 1-3-1-6Z" fill="#00BAFC"/><path opacity=".1" d="M135 94v1c2 3 4 5 1 5-2 0-5 4-5 5 0 0 3-5 5-5 3 0 1-3-1-6Z" fill="#000"/><path d="M137 96v2-2ZM138 97l-1 1 1-1s1 0 0 0Z" fill="#FFD037"/><path d="M127 94s-1 2 1 5c2 2 4 5 3 6 0 0-3-5-6-5-2 0-1-3 2-6Z" fill="#00BAFC"/><path opacity=".1" d="M127 94v1c-3 3-4 5-2 5 3 0 5 4 6 5 0 0-3-5-6-5-2 0-1-3 2-6Z" fill="#000"/><path d="M125 96v2-2ZM124 97l1 1-1-1h-1 1Z" fill="#FFD037"/><path d="m125 105 5-1c1-1 6-2 6 0 1 1 6 6 2 7l-12-2-1-4Z" fill="#A8A8A8"/><path opacity=".2" d="m138 110-11-1-2-4 1 4 12 2 2-2-2 1Z" fill="#000"/><path opacity=".3" d="M107 79H95v12h12V79ZM89 62H76v13h13V62ZM90 95H78v13h12V95Z" fill="#3A3768"/><path d="M87 31H75v13h12V31ZM105 74l-9 9 8 9 9-9-8-9ZM107 46H95v13h12V46ZM91 60H79v13h12V60Z" fill="#fff"/><path d="M157 118h3a7 7 0 0 1-1-2l-1 1h-1v1ZM171 117l1-1-1-2v1h-1l1 1v1Z" fill="#00BAFC"/><path d="M160 120h-3l-1 1h-1a15 15 0 0 1-2 0 1 1 0 0 1 0-1v-1h1l2-1v-1h1l1 1a1 1 0 0 0 1 0h1v-1 3Z" fill="#514E7F"/><path d="M160 120h-3l-1 1h-1a15 15 0 0 1-2 0 1 1 0 0 1 0-1h4l1-1h2v1Z" fill="#464353"/><path d="m174 117-1 1-1 1-1 1-1 1a4 4 0 0 1-2 0v-2h1v-3h1a1 1 0 0 1 1 0h1a1 1 0 0 0 0-1l1 1 1 1Z" fill="#514E7F"/><path d="m174 117-1 1-1 1-1 1-1 1a4 4 0 0 1-2 0v-1h3v-1h1a8 8 0 0 1 0-2h1v-1l1 1Z" fill="#464353"/><path d="m150 82 1 1 1 3h2l1-1 1-1-2-3-1-1h-1l-1 1-1 1Z" fill="#A1616A"/><path d="M154 82h-1v2l-1 2-1 1v1l1 1v1l1 2 3 7 7-2-3-4-3-6-1-3v-2h-2Z" fill="#514E7F"/><path d="M150 82a3 3 0 1 0 0-5 3 3 0 0 0 0 5Z" fill="#A1616A"/><path d="M153 81a1 1 0 0 1 1 0h3v1l1-1 1 1 1 1v3l1 1v3h1v2l1 1 1 2h-5v-2l-1-1v-1l-1-1h-1a1 1 0 0 1 0-1v-1l-2-3v-2a1 1 0 0 1 0-1v-1h-1ZM150 84v2l1 1v1l1 2v1h2l-1-2-1-4-1-2a1 1 0 0 0-1 1Z" fill="#464353"/><path d="m152 87 1 2h2v-3l-1-1v-2l-1-1-1 1v4Z" fill="#00BAFC"/><path d="m156 99-1 2v3l-1 1v3l1 1v3l1 5h3a1 1 0 0 0 1 0l-1-2v-4l-1-2v-4l1-2 1-2v1h1v1l1 3v1h1a2 2 0 0 0 0 1l1 1v1h1l2 2 1 1v1l1 1v1l3-1v-1l-1-1-1-2-3-4h-1v-3l-1-1v-5l-1-4c-1-1-2 2-3 2h-1l-2 1-2 1v1ZM148 77a2 2 0 0 1 2-1h1l1 1h1v3-1h-1v1l-1-1v-1h-1a1 1 0 0 1-1 0h-1v1h-1l1-2Z" fill="#464353"/><path d="M149 84v1h2v1h2l1-5v-1h-1l-1 1-1 2h-1l-1 1Z" fill="#00BAFC"/><path d="M163 87h-12v12h12V87Z" fill="#fff"/><path d="M163 93v1l-1 1h2-1v1a1 1 0 0 0 1 0h1a1 1 0 0 0 0-1 5 5 0 0 0 0-2h-2Z" fill="#A1616A"/><path d="M163 93v-3h-1v-3l-1-1h-1v-1l-1-1v-1h2l2 1 1 1 1 1v8l-2-1" fill="#464353"/><path d="M150 91a1 1 0 0 0 0 1v1h1v-2h-1Z" fill="#A1616A"/><path opacity=".1" d="M153 80v1l-1 2M154 80a1 1 0 0 0-1 1v1" fill="#000"/><path d="m50 91-1 3h1l-1 2-3 4v1h-2l-2 1a1 1 0 0 0 1 1v1l3-1 2-2 1-2a15 15 0 0 0 3-3v-1l1-1 1-3-2-2h-1v1h-1v1" fill="#FBBEBE"/><path opacity=".1" d="m50 91-1 3h1l-1 2-3 4v1h-2l-2 1a1 1 0 0 0 1 1v1l3-1 2-2 1-2a15 15 0 0 0 3-3v-1l1-1 1-3-2-2h-1v1h-1v1" fill="#000"/><path d="M28 95v2a13 13 0 0 0 3 3l1 2v2l1 1h1v-1h1v-1a3 3 0 0 0-1-1l-1-1a42 42 0 0 1-4-8v-4h-2a2 2 0 0 0-1 1l1 1 1 4Z" fill="#A1616A"/><path opacity=".1" d="M28 95v2a13 13 0 0 0 3 3l1 2v2l1 1h1v-1h1v-1a3 3 0 0 0-1-1l-1-1a42 42 0 0 1-4-8v-4h-2a2 2 0 0 0-1 1l1 1 1 4Z" fill="#000"/><path d="m52 114-2 1 1 1h2a24 24 0 0 0 4 0v-1a1 1 0 0 0 0-1h-1l-1-1h-1l-2 1ZM55 117l-2 1 1 1h4a9 9 0 0 1 2 0v-2l-1-1h-2l-2 1Z" fill="#3F3D56"/><path d="m53 102-1 2 1 1v4l1 3-1 1 2 2h2v-8l1-3a55 55 0 0 1 1-5v-1l1-3-2 1-1 1-1 1a104 104 0 0 0-3 4Z" fill="#464353"/><path opacity=".1" d="m53 102-1 2 1 1v4l1 3-1 1 2 2h2v-8l1-3a55 55 0 0 1 1-5v-1l1-3-2 1-1 1-1 1a104 104 0 0 0-3 4Z" fill="#000"/><path d="m56 97 1 1v1l-1 1-1 3-1 2 1 2 1 1v7l1 1 2 1h1a1 1 0 0 0 0-1v-1l-1-2v-6l-1-1v-1a1 1 0 0 0 0-1h1l3-3v-1l2-1v-4h-2l-2-1-3 2-1 1Z" fill="#464353"/><path d="M20 117h1v-1h1v1h3v-1h-1v-2h-1v-1h-3v4Z" fill="#514E7F"/><path opacity=".1" d="M20 117h1v-1h1v1h3v-1h-1v-2h-1v-1h-3v4Z" fill="#000"/><path d="m21 96-1 1 1 1 1 2 1 2v3l-1 1a21 21 0 0 0 0 5h1v1h-1 1v1h-2v-2a128 128 0 0 0-1-11l-1-1-1-4h1l2 1Z" fill="#464353"/><path opacity=".1" d="m21 96-1 1 1 1 1 2 1 2v3l-1 1a21 21 0 0 0 0 5h1v1h-1 1v1h-2v-2a128 128 0 0 0-1-11l-1-1-1-4h1l2 1Z" fill="#000"/><path d="M16 93v-1l-1 1h-1a3 3 0 0 0 0 4l1 1v1a170 170 0 0 0 4 5v10h3v-1a1 1 0 0 1 0-1c-1 0-1 0 0 0l-1-2 1-2v-6h-1l-1-4v-2l-1-1v-1l-3-1Z" fill="#464353"/><path d="m19 117 1 1v-1h1v1h3v-1h-1v-2h-1v-1h-3v3Z" fill="#514E7F"/><path d="M45 99H33v12h12V99Z" fill="#fff"/><path d="M30 88a2 2 0 1 0 0-5 2 2 0 0 0 0 5Z" fill="#A1616A"/><path d="M28 87h-1l-3 1h-1v2l2 2h3v-1a14 14 0 0 0 1-2l1-1v-1h-1l-1-1v1Z" fill="#A1616A"/><path d="M28 92h-1l-2-1-1-1v-2h-1l-1 1v1h-1l-1 1-1 1h-3v1a5 5 0 0 0 3 3l1 1v-1h2l1-1h2l2-1h1v-2Z" fill="#514E7F"/><path d="M25 88h1a2 2 0 0 1 1 1l-1-1h-2v1h-1l1-1h1Z" fill="#514E7F"/><path d="m26 95 1 2a13 13 0 0 0 2 4l2 2v2h2v-1h1a3 3 0 0 0-1-2h-1l-1-1a41 41 0 0 1-3-8v-3l-1-1h-1a2 2 0 0 0-1 1v2l1 3Z" fill="#A1616A"/><path d="M34 84h-1v-1h-1v-1h-4v1l-1 1v2l-2 1 2 2a2 2 0 0 1 0 2v1h1v1l1 1h1v-1l1-1v-1l-1-2v-2h1v-2h2l1-1Z" fill="#464353"/><path d="M48 88a3 3 0 1 0 0-6 3 3 0 0 0 0 6Z" fill="#FBBEBE"/><path d="M50 85a3 3 0 0 0 2 1v1l-2 4a2 2 0 0 0 0-2l-1-1-1-1h-1l2-2h1Z" fill="#FBBEBE"/><path d="M50 88v1h-1v2a1 1 0 0 1 0 1h2l1 1a6 6 0 0 0 4 4h2l1-1 1 1 2-1 1-1h1l-1-1v-1l-2-2a13 13 0 0 0-2-1l-1-1-1-1-1-1h-1l-1-1h-2l-1-1v2l-1 1Z" fill="#3F3D56"/><path d="m51 92-1 3h1l-1 2-3 4v1h-2l-2 1a1 1 0 0 0 1 1v1l3-1 2-2 1-1a15 15 0 0 0 3-4v-1l1-1 1-3-2-2h-1v1h-1v1" fill="#FBBEBE"/><path d="M52 88h-1l-1 2 1 1v2l1-1h3l-1-1 1-1a1 1 0 0 0 0-2h-3" fill="#3F3D56"/><path d="m44 82 1-1 1-1 2 1a5 5 0 0 0 2 0v2l1 1v2l-1-1h-1l-2-1a2 2 0 0 0-1 0l-1 1-2-2a1 1 0 0 0 1-1Z" fill="#464353"/><path d="m105 50-1 1 1-1h-1a1 1 0 0 0-3 1 4 4 0 0 1-3-1 1 1 0 0 0 1 2h-1a1 1 0 0 0 1 1 2 2 0 0 1-1 0 1 1 0 0 0 2 1 3 3 0 0 1-2 1l2 1c3 0 4-3 4-5l1-1ZM99 82l1 1 3 4 1-1h1l1-2v-3l-2-3-5 4Zm7-1v2l-1 1v1l-1-1-1 1-3-3 4-3 2 2Z" fill="#00BAFC"/><path d="m103 81 1-1 1 2-2-1Zm-1 1v-1l2 2h-1l-1-1ZM41 101h-6v6h3v-4l2-1v1h-1v1h1v1h-1v2h2v-6ZM86 64a1 1 0 0 1 1 1v3a1 1 0 0 1-1 1h-2a1 1 0 0 1-1-1v-3a1 1 0 0 1 1-1h2Zm0 0h-2a2 2 0 0 0-2 1v3a2 2 0 0 0 2 2h2a2 2 0 0 0 2-2v-3a2 2 0 0 0-2-1Z" fill="#00BAFC"/><path d="M87 65Zm-2 1a1 1 0 1 1 0 2 1 1 0 0 1 0-2Zm0-1a1 1 0 1 0 0 3 1 1 0 0 0 0-3ZM161 91l-1-1h-5l-2 1a22 22 0 0 0 0 3l2 2a59 59 0 0 0 5 0l1-2a24 24 0 0 0 0-3Zm-5 3v-3l3 2-3 1ZM81 34a3 3 0 0 0-1 7v-1a1300 1300 0 0 0 1-3v1a1 1 0 0 0 0 1l1-2-1-1a2 2 0 0 0-2 1l1 1v1h-1v-2c0-1 0-2 2-2l2 2-2 2-1 1v1a3 3 0 0 0 3-1 3 3 0 0 0-2-6Z" fill="#00BAFC"/><path d="M116 128v-9l-2-5v-10l-1-1v-1h2l-1-4-1-2v-3l1-1 1-1v-5l-1-1v-1l-1-2h-1v2l1 1v3-1l-1 1h-1c1 0 0 0 0 0l-1-1 1-1v-3l-1-1v-1h-1l-2 1h-1v2a2 2 0 0 0 1 2v2l-2-1-1 1h-3l-1-1h-1l-1-1-2-2v-2s-1-2-2-1v2l1 1v2l2 3 6 3v1l-1 1v5l-1 2v2h3v1a68 68 0 0 0 1 8v5l1 1v7c1 0 1 0 0 0v1l1 1a1 1 0 0 1-1 0v1l1 1h2v-4h1-1v-16l1 2v2l1 1v2l1 1v5l1 1 1 1-1 1v1h1-1v2h3Z" fill="url(#b)"/><path d="m107 129-1-1v-1h1v-1h2v3h-2ZM114 128h-2v-1a1 1 0 0 1 1 0v-1h3v2h-2Z" fill="#2D293D"/><path opacity=".1" d="M109 126v1h-2v-1h2ZM116 126h-3 3Z" fill="#000"/><path d="M116 124v2h-3v-2l-1-1v-6l-1-1v-2l-1-1v-2l-1-2v16s1 0 0 0v1l-2 1-1-1v-1c1 0 1 0 0 0v-7l-1-1v-5l-1-5a75 75 0 0 1 0-5l9-1v3l1 4-1 3 1 2v1s2 4 1 5l1 3v2Z" fill="#464353"/><path opacity=".1" d="M111 114h3-3ZM113 111v1-1ZM113 108l-3 2 3-2ZM108 115l-2 1 2-1ZM108 123s-2 0-1 1h1v-1Z" fill="#000"/><g opacity=".1" fill="#000"><path opacity=".1" d="M106 124v1-1ZM109 124v-1 1ZM109 114v1-1ZM114 113ZM109 121ZM109 125v1h-2a5 5 0 0 1-1-1v1l1 1 2-1v-1ZM106 121v2-6l-1-1v-4l-1-6v-4 1a74 74 0 0 0 1 9v5l1 1v3ZM113 126v-1 1h3-3ZM116 124ZM113 124v-1l-1-2v2l1 1ZM112 120a11 11 0 0 1 0 1v-5h-1v-2l-1-1v-3l-1-1v1-1l1 2v2l1 1v2l1 1v3Z"/></g><path d="M114 84v1h-1l-1-1v-2l2 2Z" fill="#FFCDD3"/><path opacity=".1" d="M114 85h-1a1 1 0 0 1 1 0Z" fill="#000"/><path d="m114 85-1 1v-1h1Z" fill="#DCE6F2"/><path d="m97 84-2 1v-1l-1-1c-1-1 1-2 1-2l1 1v1a4 4 0 0 1 1 1Z" fill="#FFCDD3"/><path opacity=".1" d="m97 84-2 1v-1h2Z" fill="#000"/><path d="m97 84-2 1v-1h2Z" fill="#DCE6F2"/><path d="M111 89h-5l1-1v-3s4-2 3 0v2l1 2Z" fill="#FFCDD3"/><path opacity=".1" d="M110 85v1h-3v-1s4-2 3 0Z" fill="#000"/><path d="M108 87a2 2 0 1 0 0-5 2 2 0 0 0 0 5Z" fill="#FFCDD3"/><path opacity=".1" d="M111 89h-5l1-1 1-1a2 2 0 0 1 2 0l1 2ZM114 85l-1 1a1 1 0 0 1 1-1ZM97 84l-2 1 2-1ZM113 103a35 35 0 0 1-9 0v-1l9-1v2Z" fill="#000"/><path d="m115 102-8 1h-6l1-2v-5l1-2v-2l-6-3-2-3v-1l2-1 1 2 1 1h1l1 1h3l1-1 2 1 1-1h2l1 1h1v-1l1 1v-2c0-2 2 0 2 0v5l-1 1-1 1v3l1 2 1 4Z" fill="#3F3D56"/><path opacity=".1" d="M105 89h-1v-1l1 1ZM101 88h-2l1-1 1 1Z" fill="#000"/><path d="M96 85ZM96 86v-1 1ZM96 86ZM96 86ZM115 86ZM115 87v-1 1ZM115 87Z" fill="#575988"/><path opacity=".1" d="M105 95s4 5 7 2c0 0-5 1-7-2ZM102 97l3 1v1h-3v-2Z" fill="#000"/><path d="m102 97 3 1v1l-3-1v-1Z" fill="#3F3D56"/><path opacity=".1" d="m104 92 1 2 1 1-2-3ZM103 89l1 2-1-2ZM102 89l2 2-2-2ZM114 88l1 1-1-1Z" fill="#000"/><path d="M108 86v1h2v-1h1v-3l-1-1v-1h-1l-2 1h-1v3h1l1 1Z" fill="#2D293D"/><path opacity=".1" d="M110 86a5 5 0 0 1-2 0l-1-1h-1v-2 2h1l1 1v1h2v-1ZM107 88h3-3ZM113 87h2-2Z" fill="#000"/></g><defs><linearGradient id="b" x1="105" y1="129" x2="105" y2="80.5" gradientUnits="userSpaceOnUse"><stop stop-color="gray" stop-opacity=".3"/><stop offset=".5" stop-color="gray" stop-opacity=".1"/><stop offset="1" stop-color="gray" stop-opacity=".1"/></linearGradient><clipPath id="a"><path fill="#fff" transform="translate(1)" d="M0 0h177v130H0z"/></clipPath></defs></svg>