<svg width="300" height="233" fill="none" xmlns="http://www.w3.org/2000/svg"><g clip-path="url(#a)"><path opacity=".8" d="M274 221H16V54a5 5 0 0 1 5-5h247a5 5 0 0 1 6 5v167Z" fill="url(#b)"/><path d="M24 52h241a5 5 0 0 1 5 5v164H19V57a5 5 0 0 1 5-5Z" fill="#fff"/><path d="M262 62H27v154h235V62Z" fill="#F5F5F5"/><path opacity=".8" d="M262 69H28v139h234V69Z" fill="#E0E0E0"/><path d="M262 62H28v7h234v-7Z" fill="#F5F5F5"/><path d="M33 67a2 2 0 1 0 0-3 2 2 0 0 0 0 3Z" fill="#FF5252"/><path d="M38 67a2 2 0 1 0 0-3 2 2 0 0 0 0 3Z" fill="#FF0"/><path d="M43 67a2 2 0 1 0 0-3 2 2 0 0 0 0 3Z" fill="#69F0AE"/><path opacity=".8" d="M281 232H11c-11-5-11-26-11-26l113-1 1 6h48l2-5h125s3 19-8 26Z" fill="url(#c)"/><path d="M288 207H165a4 4 0 0 1-3 7h-47a4 4 0 0 1-3-7H2s0 19 11 23h266c11-6 9-23 9-23Z" fill="#F5F5F5"/><path d="M27 213a2 2 0 1 0 0-3 2 2 0 0 0 0 3ZM32 213a2 2 0 1 0 0-3 2 2 0 0 0 0 3Z" fill="#E0E0E0"/><path d="M36 213a2 2 0 1 0 0-3 2 2 0 0 0 0 3Z" fill="#E0E0E0"/><path d="M140 126h11a46 46 0 0 1 46 46v34H93v-34a46 46 0 0 1 47-46Z" fill="#00BAFC"/><path d="M145 108a47 47 0 1 0 0-95 47 47 0 0 0 0 95Z" fill="#333"/><path opacity=".1" d="M138 112h14a10 10 0 0 1 10 10v9a15 15 0 0 1-15 15h-3a15 15 0 0 1-15-15v-9a10 10 0 0 1 9-10Z" fill="#000"/><path d="M129 111h33v19a15 15 0 0 1-15 15h-3a15 15 0 0 1-15-15v-19Z" fill="#FDB797"/><path opacity=".1" d="M129 116c10 4 22 4 33 0v-4h-33v4Z" fill="#000"/><path d="M145 118a47 47 0 1 0 0-95 47 47 0 0 0 0 95Z" fill="#FDB797"/><path opacity=".1" d="M100 54h90s-7-37-41-34c-35 2-49 34-49 34Z" fill="#000"/><path d="M100 53h90s-7-37-41-34c-35 2-49 34-49 34Z" fill="#333"/><path d="M99 77c2 0 4-4 4-8 0-5-2-9-4-9s-4 4-4 9c0 4 2 8 4 8ZM192 77c2 0 4-4 4-8 0-5-2-9-4-9-3 0-5 4-5 9 0 4 2 8 5 8Z" fill="#FDB797"/><path d="M107 29c1-4 3-7 6-10l8-3 11-5c4-3 8-6 12-7 8-3 16-2 24 0l6 3 5 4 12 15c2 2 3 3 3 5l2 5-1 8c-3 3-7 5-11 5l-12-2c-13-4-26-7-40-9h-20c-2 0-5 1-6-1s1-7 1-8Z" fill="#333"/><path opacity=".1" d="M114 169v37M178 169v37" stroke="#000" stroke-width="4" stroke-miterlimit="10"/><path opacity=".8" d="M300 67h-59l-21 16V67h-13V1h93v66Z" fill="url(#d)"/><path d="M299 1h-91v64h91V1Z" fill="#fff"/><path d="M290 11h-71v2h71v-2ZM268 19h-49v2h49v-2ZM278 28h-59v2h59v-2Z" fill="#E0E0E0"/><path d="M266 36h-47v2h47v-2ZM290 45h-71v1h71v-1Z" fill="#00BAFC"/><path d="M290 53h-71v2h71v-2Z" fill="#E0E0E0"/><path d="M224 63v17l18-18-18 1Z" fill="#fff"/></g><defs><linearGradient id="b" x1="144.6" y1="221.1" x2="144.6" y2="48.8" gradientUnits="userSpaceOnUse"><stop stop-color="gray" stop-opacity=".3"/><stop offset=".5" stop-color="gray" stop-opacity=".1"/><stop offset="1" stop-color="gray" stop-opacity=".1"/></linearGradient><linearGradient id="c" x1="169221" y1="22572.9" x2="169221" y2="20217.9" gradientUnits="userSpaceOnUse"><stop stop-color="gray" stop-opacity=".3"/><stop offset=".5" stop-color="gray" stop-opacity=".1"/><stop offset="1" stop-color="gray" stop-opacity=".1"/></linearGradient><linearGradient id="d" x1="70901.9" y1="20613.9" x2="70901.9" y2=".6" gradientUnits="userSpaceOnUse"><stop stop-color="gray" stop-opacity=".3"/><stop offset=".5" stop-color="gray" stop-opacity=".1"/><stop offset="1" stop-color="gray" stop-opacity=".1"/></linearGradient><clipPath id="a"><path fill="#fff" transform="translate(0 1)" d="M0 0h300v232H0z"/></clipPath></defs></svg>